<?xml version="1.0" standalone="no"?>
<!DOCTYPE svg PUBLIC "-//W3C//DTD SVG 20010904//EN"
 "http://www.w3.org/TR/2001/REC-SVG-20010904/DTD/svg10.dtd">
<svg version="1.0" xmlns="http://www.w3.org/2000/svg"
 width="500.000000pt" height="500.000000pt" viewBox="0 0 500.000000 500.000000"
 preserveAspectRatio="xMidYMid meet">
<metadata>
Created by potrace 1.14, written by Peter Selinger 2001-2017
</metadata>
<g transform="translate(0.000000,500.000000) scale(0.100000,-0.100000)"
fill="#000000" stroke="none">
<path d="M2315 3735 c-196 -30 -411 -120 -562 -234 -366 -276 -557 -737 -488
-1181 22 -144 50 -233 114 -365 379 -777 1402 -946 2008 -333 317 322 434 768
317 1211 -32 119 -126 313 -203 414 -74 99 -203 222 -299 286 -94 63 -258 140
-352 167 -173 48 -371 61 -535 35z m327 -560 c41 -8 114 -35 166 -61 75 -37
110 -61 176 -127 68 -68 91 -98 129 -177 103 -209 103 -411 0 -620 -65 -134
-169 -238 -303 -303 -209 -103 -411 -103 -620 0 -77 38 -110 61 -176 127 -214
215 -263 519 -128 794 64 130 172 240 296 302 153 76 304 97 460 65z"/>
</g>
</svg>
